<svg xmlns="http://www.w3.org/2000/svg" version="1.1" xmlns:xlink="http://www.w3.org/1999/xlink" xmlns:svgjs="http://svgjs.dev/svgjs" width="100%" height="100%" viewBox="0 0 1000 600"><rect width="1000" height="600" x="0" y="0" fill="#1fbddd"/><g><rect width="333.3333333333333" height="333.3333333333333" rx="13.333333333333334" ry="13.333333333333334" y="149.62440270024538" fill="#116677" transform="matrix(0.9811448990046745,0,0,0.9811448990046745,0,-10.32737533225118)" x="127.40218353271484"/><path d="M303.21554410765714 241.29107542182743Q316.27808017003355 241.29107542182743 325.2202189509892 244.6516831336245Q334.1623577319449 248.01229084542155 343.39672327044815 255.58096386590367L343.39672327044815 255.58096386590367L332.46744253816905 268.43894119799677Q319.20034774550925 257.68499652024616 304.4721191651117 257.68499652024616L304.4721191651117 257.68499652024616Q286.383282872917 257.68499652024616 275.33711143761883 271.59499017951055Q264.29094000232067 285.47576116302014 264.29094000232067 316.1887933812699L264.29094000232067 316.1887933812699Q264.29094000232067 346.0543680026317 275.2494434103546 360.2565884194436Q286.17872414263377 374.45880883625557 304.2675604348284 374.45880883625557L304.2675604348284 374.45880883625557Q313.5311486490864 374.45880883625557 320.4861454787186 371.3027598547418Q327.411919632596 368.146710873228 335.21437405911615 362.47751177680516L335.21437405911615 362.47751177680516L345.09163846422405 375.10170770286027Q338.37042304062993 382.0567045324924 327.85025976891734 386.673887301744Q317.3300964972048 391.2910700709957 303.6538842439785 391.2910700709957L303.6538842439785 391.2910700709957Q285.97416541235043 391.2910700709957 272.1810624561051 382.58271269607803Q258.41718217561447 373.84513264540567 250.73161845211337 356.8959807076466Q243.04605472861223 339.97605144564216 243.04605472861223 316.1887933812699L243.04605472861223 316.1887933812699Q243.04605472861223 292.4015353168976 251.0530678854157 275.4816060548932Q259.0308583664644 258.5324541171341 272.70707061969074 249.91176476948075Q286.383282872917 241.29107542182743 303.21554410765714 241.29107542182743L303.21554410765714 241.29107542182743Z " fill="#ffffff" transform="matrix(0.9811448990046745,0,0,0.9811448990046745,0,-10.32737533225118)"/><path d="M564.9036422476489 391.2910740636786Q555.249135134697 391.2910740636786 549.6458380909402 385.52993766657653Q544.0688476060742 379.7424947105835 544.0688476060742 369.32509738979616L544.0688476060742 369.32509738979616L544.0688476060742 249.05151014070603L561.4837895918349 246.97329198832674L561.4837895918349 368.95680556532386Q561.4837895918349 373.11324187008245 562.9043437719422 375.0073141102256Q564.3248979520496 376.90138635036885 567.7447506078636 376.90138635036885L567.7447506078636 376.90138635036885Q571.3487491759138 376.90138635036885 574.1898575361286 375.77020431806113L574.1898575361286 375.77020431806113L578.7408922242503 387.89752796675543Q572.4799312082215 391.2910740636786 564.9036422476489 391.2910740636786L564.9036422476489 391.2910740636786ZM600.5227229858965 289.2216255670754L617.9376649716571 289.2216255670754L617.9376649716571 389.02870999906315L600.5227229858965 389.02870999906315L600.5227229858965 289.2216255670754ZM609.0460480665406 241.2910752678973Q614.5178123158431 241.2910752678973 617.9376649716571 244.71092792371132Q621.3575176274712 248.10447402063446 621.3575176274712 253.2342530043555L621.3575176274712 253.2342530043555Q621.3575176274712 258.33772542918564 617.9376649716571 261.6523518494362Q614.5178123158431 264.9669782696867 609.0460480665406 264.9669782696867L609.0460480665406 264.9669782696867Q603.7321231705835 264.9669782696867 600.3122705147695 261.6523518494362Q596.9187244178463 258.33772542918564 596.9187244178463 253.2342530043555L596.9187244178463 253.2342530043555Q596.9187244178463 248.10447402063446 600.3122705147695 244.71092792371132Q603.7321231705835 241.2910752678973 609.0460480665406 241.2910752678973L609.0460480665406 241.2910752678973ZM754.126720349728 286.93295494356903Q766.4381899106585 286.93295494356903 773.8303329589949 295.1669078764136Q781.1961694484405 303.42716736814907 781.1961694484405 317.4222566980957L781.1961694484405 317.4222566980957L781.1961694484405 389.02870999906315L763.7812274626798 389.02870999906315L763.7812274626798 319.89507323383805Q763.7812274626798 300.5860590079343 749.7598315738423 300.5860590079343L749.7598315738423 300.5860590079343Q742.3676885255059 300.5860590079343 737.2642161006758 304.84772154825635Q732.1607436758455 309.1093840885785 726.2680744842891 318.1851469059311L726.2680744842891 318.1851469059311L726.2680744842891 389.02870999906315L708.8531324985285 389.02870999906315L708.8531324985285 319.89507323383805Q708.8531324985285 300.5860590079343 694.8317366096909 300.5860590079343L694.8317366096909 300.5860590079343Q687.2554476491183 300.5860590079343 682.1519752242882 304.92664122492897Q677.0221962405672 309.2935300008146 671.3399795201377 318.1851469059311L671.3399795201377 318.1851469059311L671.3399795201377 389.02870999906315L653.925037534377 389.02870999906315L653.925037534377 289.2216255670754L668.8934695432862 289.2216255670754L670.3929434000661 303.79545919262137Q681.5732309286889 286.93295494356903 699.1986253855765 286.93295494356903L699.1986253855765 286.93295494356903Q708.4848406740562 286.93295494356903 715.0088672789936 291.66813554392695Q721.5328938839313 296.4033161442849 724.3740022441459 304.92664122492897L724.3740022441459 304.92664122492897Q730.2666714357025 296.21917023204867 737.3694423362392 291.5892158672543Q744.472213236776 286.93295494356903 754.126720349728 286.93295494356903L754.126720349728 286.93295494356903ZM883.4760704161707 365.72109882174607Q883.4760704161707 371.79791392553864 885.5805951274409 374.71794196242604Q887.6588132798203 377.6642765582043 891.8152495845787 379.19005697387513L891.8152495845787 379.19005697387513L887.8429591920564 391.2910740636786Q880.0825243192476 390.34403794360696 875.3473437188896 386.9504918466838Q870.6121631185318 383.5306391908698 868.3234924950256 376.34894861366035L868.3234924950256 376.34894861366035Q858.3006935576013 391.2910740636786 838.5970809483343 391.2910740636786L838.5970809483343 391.2910740636786Q823.8127948516614 391.2910740636786 815.2894697710173 382.9782014541614Q806.766144690373 374.6390222857534 806.766144690373 361.1963706925152L806.766144690373 361.1963706925152Q806.766144690373 345.2809025635345 818.2358043667955 336.75757748289027Q829.7054640432178 328.23425240224617 850.7244045970286 328.23425240224617L850.7244045970286 328.23425240224617L866.06112843041 328.23425240224617L866.06112843041 320.8421093539097Q866.06112843041 310.2405661208862 860.9576560055799 305.6895314327645Q855.8278770218589 301.1384967446427 845.2263337888354 301.1384967446427L845.2263337888354 301.1384967446427Q834.2301921724487 301.1384967446427 818.341030602359 306.45242164059994L818.341030602359 306.45242164059994L813.9741418264733 293.7463536963063Q832.5465724034326 286.93295494356903 848.4357339735224 286.93295494356903L848.4357339735224 286.93295494356903Q866.06112843041 286.93295494356903 874.7685994232903 295.5615062597768Q883.4760704161707 304.16375101709355 883.4760704161707 320.07921914607425L883.4760704161707 320.07921914607425L883.4760704161707 365.72109882174607ZM842.5693713408568 378.2430208538035Q857.5378033497658 378.2430208538035 866.06112843041 362.6958445492952L866.06112843041 362.6958445492952L866.06112843041 339.78283175534125L852.9867686616441 339.78283175534125Q825.3385752673323 339.78283175534125 825.3385752673323 360.24933457244356L825.3385752673323 360.24933457244356Q825.3385752673323 369.14095147756007 829.7054640432178 373.6919861656818Q834.0460462602126 378.2430208538035 842.5693713408568 378.2430208538035L842.5693713408568 378.2430208538035Z " fill="#ffff" transform="matrix(0.9811448990046745,0,0,0.9811448990046745,0,-10.32737533225118)"/></g></svg>